<svg width="400" height="64" viewBox="0 0 400 64" fill="none" xmlns="http://www.w3.org/2000/svg">
<path d="M39.168 6.35927C35.3791 2.4088 29.8471 0.405518 22.719 0.405518H0V63.6751H12.6034V12.4918H21.9961C25.1034 12.4918 27.5912 13.2377 29.1808 14.6573C30.7551 16.0446 31.5499 18.1617 31.5499 20.9274C31.5499 23.6044 30.7791 25.6809 29.2614 27.1006C27.4791 28.7634 24.6614 29.6071 20.8725 29.6071H18.7556V41.6929H21.5149C24.7735 41.6929 27.7839 41.2957 30.4492 40.5168C33.2919 39.6813 35.7558 38.408 37.7874 36.7287C39.9301 34.9525 41.5839 32.7298 42.6999 30.1181C43.8246 27.4818 44.394 24.4482 44.394 21.0896C44.394 15.0226 42.5877 9.92855 39.168 6.35927Z" fill="white"/>
<path d="M65.7592 61.4857C61.9856 59.8713 58.5985 57.5677 55.692 54.6315C52.7862 51.6948 50.5063 48.2719 48.9086 44.4595C47.2548 40.509 46.4197 36.3154 46.4197 32.0003C46.4197 27.6851 47.2548 23.491 48.9086 19.5411C50.5063 15.7287 52.7862 12.3052 55.692 9.36901C58.5985 6.43283 61.9856 4.12922 65.7592 2.51483C69.669 0.843775 73.8193 0 78.0894 0C82.3606 0 86.5109 0.843775 90.4206 2.51483C94.1942 4.12923 97.5814 6.43284 100.487 9.36901C103.394 12.3052 105.674 15.7287 107.271 19.5411C108.925 23.491 109.76 27.6851 109.76 32.0003C109.76 36.3154 108.925 40.509 107.271 44.4595C105.674 48.2719 103.394 51.6948 100.487 54.6315C97.5814 57.5677 94.1942 59.8713 90.4206 61.4857C86.5109 63.1568 82.3606 64 78.0894 64C73.8193 64 69.669 63.1568 65.7592 61.4857ZM64.603 18.381C60.9981 22.0229 59.0155 26.8573 59.0155 32.0085C59.0155 37.1592 60.9981 41.9936 64.603 45.6355C68.2078 49.2779 72.9918 51.2812 78.0894 51.2812C83.188 51.2812 87.972 49.2779 91.5769 45.6355C95.1806 41.9936 97.1644 37.1592 97.1644 32.0085C97.1644 26.8573 95.1806 22.0229 91.5769 18.381C87.972 14.7392 83.1793 12.7353 78.0894 12.7353C73.0005 12.7353 68.2078 14.7392 64.603 18.381Z" fill="white"/>
<path d="M131.921 61.4857C128.147 59.8713 124.76 57.5677 121.853 54.6315C118.948 51.6948 116.668 48.2719 115.07 44.4595C113.416 40.509 112.581 36.3154 112.581 32.0003C112.581 27.6851 113.416 23.491 115.07 19.5411C116.668 15.7287 118.948 12.3052 121.853 9.36901C124.76 6.43283 128.147 4.12922 131.921 2.51483C135.83 0.843775 139.981 0 144.251 0C148.522 0 152.672 0.843775 156.582 2.51483C160.356 4.12923 163.743 6.43284 166.649 9.36901C169.556 12.3052 171.835 15.7287 173.433 19.5411C175.086 23.491 175.922 27.6851 175.922 32.0003C175.922 36.3154 175.086 40.509 173.433 44.4595C171.835 48.2719 169.556 51.6948 166.649 54.6315C163.743 57.5677 160.356 59.8713 156.582 61.4857C152.672 63.1568 148.522 64 144.251 64C139.981 64 135.83 63.1568 131.921 61.4857ZM130.764 18.381C127.159 22.0229 125.177 26.8573 125.177 32.0085C125.177 37.1592 127.159 41.9936 130.764 45.6355C134.369 49.2779 139.153 51.2812 144.251 51.2812C149.349 51.2812 154.133 49.2779 157.738 45.6355C161.342 41.9936 163.326 37.1592 163.326 32.0085C163.326 26.8573 161.342 22.0229 157.738 18.381C154.133 14.7392 149.341 12.7353 144.251 12.7353C139.162 12.7353 134.369 14.7392 130.764 18.381Z" fill="white"/>
<path d="M181.552 63.6756H194.155V39.1786H222.735V27.0923H181.552V63.6756ZM181.552 0.405518V12.4918H222.735V0.405518H181.552Z" fill="white"/>
<path d="M264.695 23.6528L253.352 63.6756H242.434L222.501 0.405518H235.891L247.821 39.6164L258.739 0.405518H270.619L281.473 39.5515L293.474 0.405518H306.777L286.763 63.6756H275.838L264.695 23.6528Z" fill="white"/>
<path d="M332.083 0.405518H321.222L297.5 63.6756H310.842L326.633 19.8162L342.56 63.6756H355.902L332.083 0.405518Z" fill="white"/>
<path d="M326.743 63.6756L316.777 48.0852H336.625L326.743 63.6756Z" fill="#10CBBB"/>
<path d="M365.656 35.9256L344.102 0.405518H358.736L371.991 22.6149L385.181 0.405518H400L378.261 35.9256V63.6756H365.656V35.9256Z" fill="white"/>
</svg>
